<?xml version="1.0" encoding="UTF-8"?>
<svg id="Layer_1" data-name="Layer 1" xmlns="http://www.w3.org/2000/svg" viewBox="0 0 1080 1080">
  <defs>
    <style>
      .cls-1 {
        fill: #82b73d;
      }

      .cls-2 {
        fill: #81b63c;
      }

      .cls-3 {
        fill: #0e612f;
      }

      .cls-4 {
        fill: #82b63b;
      }

      .cls-5 {
        fill: #0f6130;
      }

      .cls-6 {
        fill: #80b53a;
      }

      .cls-7 {
        fill: #0d612f;
      }

      .cls-8 {
        fill: #80b539;
      }

      .cls-9 {
        fill: #106331;
      }

      .cls-10 {
        fill: #f1f7e9;
      }

      .cls-11 {
        fill: #81b63d;
      }
    </style>
  </defs>
  <path class="cls-2" d="M785.13,588.95c16.51-9.99,32.76-25.19,49.54-27.23,6.93-.84,14.25.18,19.01,6.41-11.49-1.52-21.3.93-29.99,7.94l-24.64,19.89c-20.79,16.78-60.27,30.45-79.3,7.26-7.42-9.04-9.37-21.17-6.72-32.89,5.53-24.49,23.39-44.89,46.62-54.24,9.93-3.99,20.47-5.05,30.22-1.91,11.44,3.69,17.34,14.39,14.71,25.9-5.66,24.7-40.02,37.57-63.5,36.01-1.7,5.24-1.48,11.63,1.93,16.26,8.93,12.11,31.45,3.05,42.12-3.41ZM786.28,534.48c-.53-2.19-1.07-4.69-2.08-5.7-1.07-1.07-4.07-1.32-6.1-1.45-14.21,4.66-28.44,22.57-33.67,36.76,16.9.05,38.85-12.41,41.85-29.61Z"/>
  <circle class="cls-11" cx="896.77" cy="413.79" r="10.19"/>
  <g>
    <g>
      <path class="cls-9" d="M177.39,549.62c9.62,19.07,20.93,35.33,35.71,50,1.69,1.67.94,6.21-.31,7.67-1.52,1.76-5.55,2.76-7.8.64-19.1-18-33.86-39.13-44.84-63.17-48.7-106.69-11.17-234.06,78.45-306.23,62.68-50.47,147.75-72.24,226.73-55.63,3.16.66,4.69,4.36,4.2,6.73-.69,3.32-3.54,4.84-7.03,4.27-47.76-7.78-92.25-3.12-137.37,13.2-78.9,28.54-139.2,93.09-162.63,173.57-16.37,56.26-11.81,116.04,14.88,168.95Z"/>
      <g>
        <path class="cls-3" d="M244.42,529.7c17.35,21.28,49.45,24.49,74.47,16.48,35.29-11.3,63.58-39.12,75.49-74.17,9.01-26.51,4.87-55.54-21.6-68.98-12.6-6.4-24.49-5.06-23.63-14.01.3-3.15,2.92-5.16,6.34-6.08,25.56-6.86,48.39-20.8,64.29-41.99,7.64-10.18,12.94-21.4,14.38-33.85,1.72-14.85-5.79-27.71-19.43-33.27-11-4.49-22.51-5.92-34.78-5.33-28.45,1.38-54.98,11.82-77.81,28.64-26,19.16-50.35,50.65-49.65,84.36-1.25,2.01-5.22,3.25-7.66,2.68-15.03-3.55-25.38-15.78-27.29-31.07-3.23-25.9,13.56-51.66,32.54-68.02,11.64-10.03,24.04-17.8,38.11-24.39,36.44-17.07,76.47-23.11,116.5-18.26,14.88,1.8,28.53,5.79,41.56,12.65,26.04,13.71,42.71,40.18,31.93,69.83-11.97,32.93-42.86,54.38-75.87,65.51,7.6,3.89,14.23,7.17,20.43,12.21,39.77,32.34,25.33,88.83-4.96,123.05-15.65,17.67-34.57,30.66-56.16,40.45-31.2,14.15-65.69,18.92-99.24,11.92-20.23-4.22-38.35-13.19-52.29-28.02-22.87-24.33-26.69-60.83-7.95-88.35,5.63-8.27,13.27-14.36,22.74-16.76,3.91-.99,8.99-.55,11.36,2.85,3.65,5.25,12.66,20.02,8.11,25.79-13.02,16.49-13.36,39.69.05,56.13Z"/>
        <path class="cls-7" d="M295.44,509.25c-.69,4-1.36,7.31-4.12,8.92s-6.44,1.9-9.82.75c-21.06-7.17-17.53-33.79-14.46-51.38,6.88-39.43,18.17-77.43,34.23-114.13,10.97-25.08,28.44-55.53,55.17-65.15,6.57-2.36,19.04-5.14,23.53,1.4,1.15,1.67,1.5,5.62.42,7.13-8.01,11.19-14.88,21.65-21.5,33.71-22.6,41.22-40.23,84.47-52.87,129.88-4.54,16.3-7.64,31.82-10.58,48.88Z"/>
      </g>
    </g>
    <g>
      <path class="cls-5" d="M594.35,477.1c-10.02,11.5-21.15,23.22-36.09,25.64-11.53,1.86-22.13-4.74-25.2-15.89l-2.01-7.31c-10.31,12.91-22.49,26.05-39.17,28.92s-30.12-6.72-34.18-22.31c-2.46-9.48-2.59-19.31-.3-29.26,6.56-28.43,23.66-53.77,47.94-69.79,13.19-8.7,28.05-13.16,43.37-11.01,10.33,1.45,19.66,6.34,24.38,15.25,2.87,5.41,1.95,11.13-2.66,14.5-3.71,2.71-11.82,3.24-13.81-2.14-2.11-5.7-5.51-10.04-12.92-8.8-7.82,1.31-14.91,6.37-20.66,12.51-13.72,14.64-23.22,32.59-28.47,52.06-1.32,4.88-1.53,10.18-.73,14.81.84,4.86,5.51,7.37,10.14,5.88,4.88-1.57,9.5-4.81,13.1-8.83,26.08-29.09,19.22-41.06,28.68-52.83,7.6-9.45,33.27-1.43,29.52,7.79-3.9,9.58-19.77,45.22-9.06,51.9,7.22,4.5,18.89-7.74,24.02-13.12-3.44-31.33,14.9-64.41,38.72-83.51,16.63-13.33,41.34-21.7,61.35-12.29,6.25,2.94,11.54,7.88,13.57,14.46,1.62,5.25-.09,10.46-4.72,13.12-3.6,2.08-10.83,2.71-13.33-2.33-1.4-2.82-1.92-6.86-4.38-8.53-20.45-13.94-58.73,42.75-54.45,71.61.75,5.07,5.55,8.02,10.41,6.28,4.59-1.64,9.01-4.73,12.4-8.59,19.12-21.82,13.8-18.51,22.8-41.72,3.88-10.02,19.92-9.47,29.45-3.06,4.08,2.74,3.86,6.44,2.28,10.63-7.86,20.99-12.98,42.59-17.44,64.92,28.76-2.42,54.82-3.66,81.79,5.37l2.9,2.75c.68.65-.48,3.87-1.82,3.74-27.33-2.65-58.01-2.22-85.95,3.63-8.23,31.63-16.65,67.66-43.63,88.11-12.65,9.37-28.23,13.51-43.27,9.6-18.65-4.85-29.08-21.64-25.29-40.34,2.08-10.25,6.56-19.3,13.32-27.4,17.84-21.41,41.59-31.21,67.91-39.06l5-22.38c-8.44,8.41-15.45,15.46-25.5,19.61-14.36,5.93-29.94,1.98-37.99-12.6ZM619.31,569.28c14.35-15.61,22.47-37.04,28.43-58.21-23.83,6.76-55.8,26.74-59.35,52.59,0,4.42.77,8.77,3.66,11.44,7.63,7.03,19.67,1.41,27.27-5.81Z"/>
      <g>
        <path class="cls-3" d="M876.96,461.79c10.51.37-1.99,38.97-40.93,41.19-20.97,1.19-38.94-11.26-45.69-30.91-7.98-23.24-1.97-49.25,6.29-71.88l10.99-30.11c-11.11,3.51-19,10.56-26.16,19.04-17.35,20.56-27.79,46.21-30.41,73.13-.22,2.28-.4,4.84-1.48,6.17-1.07,1.31-4.33,2.54-6.55,2.49-14.35-.31-25.26-12.1-25.53-26.66-.47-25.23,18.78-89.8,27.8-115.49l30.28-86.18c2.41-6.85,4.58-13.28,6.26-20.23,1.21-5.02,3.15-9.26,8.17-11.61,24.83-11.56,47.85,4.52,44.03,11.84-16.6,31.8-32.22,63.19-45.65,96.46-8.54,21.15-16.75,41.34-22.85,64.2,15.93-19.06,36.74-43.36,62.54-43.51,13.14-.07,23.07,9.83,22.54,23.15-.36,9.17-3.25,17.63-6.35,26.33-7.33,20.59-18.62,50.69-14.1,71.76,2.68,12.48,13.93,18.7,25.86,14.8,13.5-4.41,16.49-14.15,20.94-14Z"/>
        <g>
          <path class="cls-2" d="M675.66,347.43c4.84-17.49,16.86-29.78,28.02-44.57-15.26,9.83-25.04,24.19-34.27,40.11-7.58-31.06,9.15-60.54,40.91-68.63l25.89-6.59c-6.12,18.36-1.68,29.67-9.34,46.73-9.69,21.59-27.34,28.93-51.21,32.96Z"/>
          <path class="cls-6" d="M621.18,325.21c8.04,8.22,14.94,17.25,21.26,27.45-9.82,1.55-18.65,2.76-28.23,3.14-33.7,1.32-64.6-14.34-84.14-41.57-22.77-31.74-34.31-79.44-24.34-118.13,23.97,33.91,55.21,19.59,99.08,43.51,38.41,20.95,56.48,63.17,47.1,106.45-16.99-23.09-36.7-42.32-61.08-56.66l-25.01-14.71c-10.85-6-19.17-13.92-30.17-22.32,5.12,10.69,14.96,18.38,24.72,24.95l23.24,15.62c6.66,4.47,13.34,8.96,19.05,14.22"/>
        </g>
      </g>
    </g>
  </g>
  <g>
    <path class="cls-6" d="M759.35,732.39c-1.27,11.46,6.26,21.21,17.84,22.04,9.49.68,18.14-3.71,23.08-10.99,5.39-7.95,5.71-17.9,1.17-26.84-6.97-13.72-20.97-24.71-30.89-39.97-10.06-15.5-8.92-34.09,3.15-48.39,18.84-22.32,59.85-29.44,79.59-7.19,7.08,7.98,8.75,18.6,4.37,28.22-4.03,8.85-13.34,15.36-23.94,14.39-4.01-.36-9.77-4.14-7.57-8.47,2.56-5.05,5.98-9.56,5.54-15.59-.49-6.68-5.16-11.34-11.93-11.35-8.17-.01-15.15,5.1-18.46,11.51-11.94,23.1,21.85,36.55,36.9,64.66,9.79,18.29,6.6,39.79-8.6,54.04-24.26,22.72-67.92,25.36-86.03-4.5-13.15,13.58-34.74,27.15-51.63,14.38-7.44-5.62-10.25-14.29-11.38-23.9-6.93,8.44-13.47,15.98-21.61,22.35-15.82,12.39-36.89,16.25-53.08,2.29-7.66,10.71-16.75,18.97-28.59,23.06-18.72,6.45-38.09-1.6-45.08-20.26-8.12-21.68-1.02-49.59,7.14-70.76l12.42-32.21c-7.86,1.91-13.87,5.79-19.66,10.93-29.14,25.86-45.86,70.21-45.67,109.01.03,5.16-16.8,10.45-29.91-1.73-5.92-5.51-8.95-13.87-8.45-22.46.87-14.87,4.06-28.72,8.22-43.24,12.06-42.11,27.09-82.6,45.04-122.48,5-11.12,10.63-21.12,17.68-30.81,7.35-10.09,21.26-22.18,34.63-19.59,4.79.93,8.56,6.36,6.18,11.31-15.82,32.98-30.78,65.86-43.72,100.15-2.39,6.34-4.27,12-6.3,18.69,15.3-16.5,35.97-39.02,59.67-38.02,14.95.63,24.98,12.5,22.47,27.09-1.47,8.55-4.19,16.59-7.44,24.83-5.78,14.67-25.56,63.27-11.52,74.37,7.56,5.97,19.43-2.28,25.56-8.57-4.94-12.08-5.19-23.97-2.28-36.51,6.7-28.89,23.24-54.91,46.53-73.27,20.09-15.84,48.53-26.03,72.62-14.44,6.71,3.23,12.46,8.23,14.62,15.11,1.96,6.25.14,12.46-5.46,14.95-4.72,2.1-12.92,1.77-14.62-4.37-1.83-6.59-6.35-10.74-13.93-9.35-8.91,1.63-16.53,7.05-23.22,13.75-15.7,15.73-26.98,35.06-33.59,56.4-1.93,6.23-3.96,20.34,1.93,24.45,14.31,10,40.28-27.78,43.72-36.41l12.35-30.92c2.23-5.58,19.16-8.82,31.86.44,3.6,2.62,3.97,6.62,2.23,10.45-4.68,10.28-21.93,49.13-11.09,57.23,5.53,4.14,14.33-2.14,18.98-6.83-1.13-13.93,5.64-26.66,18.08-32.19,4.66-2.07,9.28-2.53,13.98-.77,2.48.93,5.67,6.68,2.88,7.91-8.07,3.56-13.73,8.71-14.8,18.38Z"/>
    <path class="cls-8" d="M260.8,765.23c6.82-17.07,13.79-32.69,21.74-48.98l52.92-108.45c-33.1,4.58-72.47,18.25-96.37,39.61-11.86,10.96-23.45,26.45-22.25,43.31.46,6.39,5.3,10.47,11.66,9.88,11.28-1.05,13.26-11.41,17.3-11.38,4.84.04,5.29,9.85,1.38,16.87-9.16,16.44-29.55,24.11-47.17,16.81-12.68-5.25-19.73-17.52-21.06-31-1.44-14.7,3.4-28.68,11.77-40.88,16.87-24.61,45.74-38.58,73.7-47.56,30.89-9.92,62.34-16.03,94.62-19.6,5.89-.65,11.57,2.49,14.24,6.09,3.53,4.75,3.77,10.51,1.48,15.92l-13.84,32.65-22.6,54.63c22.9-16.67,47.32-48.6,62.99-71.24l30.64-44.25c6.08-8.78,12.73-16.69,20.72-23.64,16.23-14.13,43.58-17.43,57.72-2.25,1.78,1.91,3.12,6.72.66,8.28-8.23,5.22-15.73,10.33-22.7,17.28-13.62,13.58-25.58,27.74-38.09,42.46-27.95,32.46-56.68,63.38-93.33,86.92,17.03,25.18,35.54,47.97,57.6,68.02,45,40.87,100.69,61.31,161.28,47.53,14.8-3.36,28.11-8.34,42.91-13.05-8.45,14.15-19.76,22.89-31.64,31.63-40.74,28.06-88.18,33.94-132.8,10.52-16.77-8.8-31.44-19.43-45.44-32.26-31.24-28.65-55.87-61.94-80.31-97.42-7.51,21.63-20.88,50.13-18.68,72.09,3.16,15.8,12.49,14.62,13.53,19.87.22,1.11-.75,3.73-1.83,4.61-9.49,7.68-21.75,12.39-34.22,11.6-20.68-1.32-35.73-18.95-33.2-39.57,1.05-8.57,3.31-16.62,6.67-25.04Z"/>
    <path class="cls-1" d="M717.92,866.61c-3.98.79-6.99-1.19-7.84-4.05-.65-2.18.33-6.92,3.58-7.67,75.91-17.59,140.17-67.59,176.34-136.85,24.33-46.58,37.99-98.44,39.05-151.36.8-39.7-6.63-77.98-19.47-115.04-1-2.87,1.57-5.96,3.64-6.3,3.11-.51,5.36.99,6.58,4.16,23.52,60.77,27.6,126.71,12.93,190.36-9.37,40.66-24.87,79.2-48.36,113.72-27.17,39.93-64.31,71.74-107.44,93.19-18.86,9.38-38,15.66-59.03,19.83Z"/>
    <g>
      <path class="cls-4" d="M629.67,898.62c-42.26,10.2-87.23-.13-125.87-20.22,10.44,0,19.92.5,30.04-.44,26.99-2.5,51.51-13.77,70.75-32.7l18.16-17.86c10.95-10.77,24.65-17.79,39.75-20.78,23.6-4.69,36.8,2.36,59.99,3.01l-14.22,27.41c-16.27,31.36-44.11,53.26-78.59,61.58ZM549.65,882.86c55.57,3.58,84.55-15.66,127.18-48.02-14.98,6.14-27.43,14.05-41.22,21.74-22.68,12.65-46.65,21.98-72.65,24.62-4.6.47-8.68.24-13.31,1.67Z"/>
      <path class="cls-10" d="M549.65,882.86c4.63-1.43,8.71-1.2,13.31-1.67,25.99-2.64,49.96-11.97,72.65-24.62,13.79-7.69,26.24-15.6,41.22-21.74-42.63,32.37-71.61,51.61-127.18,48.02Z"/>
    </g>
  </g>
</svg>